<?xml version="1.0" encoding="UTF-8" standalone="no" ?>
<!DOCTYPE svg PUBLIC "-//W3C//DTD SVG 1.1//EN" "http://www.w3.org/Graphics/SVG/1.1/DTD/svg11.dtd">
<svg xmlns="http://www.w3.org/2000/svg" xmlns:xlink="http://www.w3.org/1999/xlink" version="1.1" width="437.18359375" height="153.38" xml:space="preserve">
<desc>Created with Fabric.js 1.6.0-rc.1</desc>
<defs></defs>
<g style="stroke: none; stroke-width: 1; stroke-dasharray: none; stroke-linecap: butt; stroke-linejoin: miter; stroke-miterlimit: 10; fill: none; fill-rule: nonzero; opacity: 1;" transform="translate(10.000000000000007 10) scale(0.26 0.26)" >
  <path d="M 256 47.414 c -84.918 -0.023 -153.789 68.846 -153.777 153.772 c -0.013 65.247 40.663 120.975 98.022 143.311 c 3.579 -19.213 20.503 -33.866 40.689 -33.866 h 30.095 c 20.234 0 37.151 14.656 40.724 33.866 c 57.362 -22.336 98.03 -78.065 98.012 -143.311 C 409.779 116.26 340.941 47.398 256 47.414 z" style="stroke: none; stroke-width: 1; stroke-dasharray: none; stroke-linecap: butt; stroke-linejoin: miter; stroke-miterlimit: 10; fill: #F96232; fill-rule: nonzero; opacity: 1;" transform=" matrix(1 0 0 1 0 0) " stroke-linecap="round" />
  <path d="M 265.459 266.614 c -0.046 0 -0.087 0 -0.133 0 H 246.6 c -0.033 0 -0.064 0 -0.1 0 c -9.869 0 -19.195 -3.863 -26.25 -10.872 c -7.055 -7.099 -10.926 -16.463 -10.926 -26.401 h 18.291 c 0 5.074 1.981 9.853 5.571 13.468 c 3.566 3.54 8.312 5.512 13.34 5.512 c 0.015 0 0.033 0 0.049 0 h 18.78 c 5.151 0.179 9.902 -1.956 13.535 -5.56 c 3.484 -3.571 5.458 -8.374 5.448 -13.407 c 0.051 -5.005 -1.969 -9.884 -5.524 -13.494 c -3.556 -3.553 -8.346 -5.54 -13.445 -5.54 c -0.003 0 -0.008 0 -0.013 0 l -18.755 0.008 c -9.969 -0.008 -19.331 -3.894 -26.371 -10.947 c -7.025 -7.009 -10.903 -16.376 -10.903 -26.36 c 0 -9.935 3.863 -19.295 10.88 -26.371 c 7.181 -7.071 16.525 -10.921 26.378 -10.921 c 0.008 0 0.013 0 0.015 0 h 18.76 c 0.008 0 0.018 0 0.02 0 c 9.874 0 19.233 3.85 26.355 10.839 c 7.066 7.247 10.89 16.584 10.908 26.435 l -18.294 0.033 c -0.013 -5.061 -1.987 -9.876 -5.576 -13.558 c -3.533 -3.466 -8.346 -5.455 -13.396 -5.455 c -0.005 0 -0.01 0 -0.013 0 H 246.6 c -0.008 0 -0.008 0 -0.008 0 c -5.033 0 -9.812 1.984 -13.478 5.588 c -3.517 3.551 -5.496 8.338 -5.496 13.412 c 0 5.092 1.974 9.861 5.542 13.422 c 3.604 3.604 8.371 5.588 13.448 5.594 l 18.744 -0.008 c 0.003 0 0.013 0 0.015 0 c 9.984 0 19.372 3.889 26.424 10.941 c 6.999 7.094 10.934 16.717 10.836 26.455 c 0.018 9.738 -3.799 19.09 -10.752 26.214 C 284.7 262.761 275.361 266.614 265.459 266.614 z" style="stroke: none; stroke-width: 1; stroke-dasharray: none; stroke-linecap: butt; stroke-linejoin: miter; stroke-miterlimit: 10; fill: #321433; fill-rule: nonzero; opacity: 1;" transform=" matrix(1 0 0 1 0 0) " stroke-linecap="round" />
  <rect x="246.84" y="122.38" rx="0" ry="0" width="18.29" height="22.49" style="stroke: none; stroke-width: 1; stroke-dasharray: none; stroke-linecap: butt; stroke-linejoin: miter; stroke-miterlimit: 10; fill: #321433; fill-rule: nonzero; opacity: 1;" transform=" matrix(1 0 0 1 0 0) "/>
  <rect x="246.84" y="257.49" rx="0" ry="0" width="18.29" height="22.52" style="stroke: none; stroke-width: 1; stroke-dasharray: none; stroke-linecap: butt; stroke-linejoin: miter; stroke-miterlimit: 10; fill: #321433; fill-rule: nonzero; opacity: 1;" transform=" matrix(1 0 0 1 0 0) "/>
  <path d="M 271.03 512 h -30.095 c -27.878 0 -50.56 -22.687 -50.56 -50.57 V 352.041 c 0 -27.881 22.684 -50.56 50.56 -50.56 h 30.095 c 27.901 0 50.601 22.679 50.601 50.56 V 461.43 C 321.631 489.313 298.934 512 271.03 512 z M 240.934 319.775 c -17.795 0 -32.269 14.474 -32.269 32.266 V 461.43 c 0 17.8 14.474 32.276 32.269 32.276 h 30.095 c 17.815 0 32.307 -14.477 32.307 -32.276 V 352.041 c 0 -17.789 -14.492 -32.266 -32.307 -32.266 H 240.934 z" style="stroke: none; stroke-width: 1; stroke-dasharray: none; stroke-linecap: butt; stroke-linejoin: miter; stroke-miterlimit: 10; fill: #095be8; fill-rule: nonzero; opacity: 1;" transform=" matrix(1 0 0 1 0 0) " stroke-linecap="round" />
  <path d="M 268.8 353.923 c 0 7.081 -5.745 12.833 -12.82 12.833 c -7.076 0 -12.79 -5.752 -12.79 -12.833 c 0 -7.099 5.714 -12.828 12.79 -12.828 C 263.055 341.094 268.8 346.824 268.8 353.923 z" style="stroke: none; stroke-width: 1; stroke-dasharray: none; stroke-linecap: butt; stroke-linejoin: miter; stroke-miterlimit: 10; fill: #095be8; fill-rule: nonzero; opacity: 1;" transform=" matrix(1 0 0 1 0 0) " stroke-linecap="round" />
  <path d="M 155.535 375.747 c -5.496 -3.18 -10.921 -6.656 -16.113 -10.35 l 10.596 -14.909 c 4.726 3.361 9.659 6.525 14.661 9.413 L 155.535 375.747 z M 356.826 375.549 l -9.16 -15.836 c 4.987 -2.888 9.915 -6.06 14.633 -9.434 l 10.632 14.881 C 367.736 368.878 362.317 372.37 356.826 375.549 z M 124.355 353.569 c -4.815 -4.168 -9.487 -8.604 -13.875 -13.197 l 13.22 -12.646 c 3.999 4.175 8.238 8.218 12.626 12.004 L 124.355 353.569 z M 387.96 353.316 l -11.983 -13.821 c 4.36 -3.781 8.599 -7.828 12.598 -12.024 l 13.248 12.618 C 397.422 344.701 392.758 349.158 387.96 353.316 z M 97.907 325.924 c -3.953 -5.002 -7.698 -10.248 -11.144 -15.575 l 15.36 -9.93 c 3.139 4.849 6.546 9.613 10.14 14.164 L 97.907 325.924 z M 414.351 325.612 l -14.367 -11.323 c 3.564 -4.523 6.961 -9.295 10.107 -14.175 l 15.383 9.892 C 422.019 315.382 418.278 320.635 414.351 325.612 z M 77.14 293.783 c -2.929 -5.645 -5.619 -11.5 -8 -17.408 l 16.965 -6.838 c 2.161 5.371 4.611 10.693 7.273 15.821 L 77.14 293.783 z M 435.064 293.422 l -16.259 -8.387 c 2.65 -5.135 5.087 -10.463 7.24 -15.841 l 16.978 6.804 C 440.663 281.91 437.978 287.772 435.064 293.422 z M 62.838 258.281 c -1.805 -6.106 -3.323 -12.367 -4.539 -18.614 l 17.964 -3.474 c 1.096 5.67 2.486 11.364 4.124 16.911 L 62.838 258.281 z M 449.285 257.887 l -17.554 -5.135 c 1.623 -5.558 2.998 -11.256 4.083 -16.927 l 17.966 3.438 C 452.585 245.501 451.072 251.763 449.285 257.887 z M 55.562 220.71 c -0.607 -6.305 -0.919 -12.746 -0.937 -19.121 l 18.294 -0.033 c 0.013 5.806 0.297 11.661 0.852 17.403 L 55.562 220.71 z M 456.481 220.301 l -18.212 -1.713 c 0.538 -5.747 0.812 -11.607 0.812 -17.4 v -0.781 h 18.294 v 0.781 C 457.372 207.549 457.073 213.985 456.481 220.301 z M 73.7 184.151 l -18.209 -1.677 c 0.584 -6.341 1.48 -12.721 2.66 -18.967 l 17.974 3.4 C 75.046 172.59 74.232 178.391 73.7 184.151 z M 438.198 183.037 c -0.568 -5.752 -1.416 -11.548 -2.524 -17.226 l 17.948 -3.51 c 1.226 6.249 2.163 12.623 2.783 18.949 L 438.198 183.037 z M 80.174 149.98 l -17.562 -5.107 c 1.774 -6.111 3.866 -12.204 6.221 -18.12 l 16.993 6.764 C 83.692 138.89 81.789 144.428 80.174 149.98 z M 431.521 148.91 c -1.654 -5.558 -3.587 -11.082 -5.757 -16.43 l 16.957 -6.868 c 2.383 5.883 4.516 11.973 6.336 18.081 L 431.521 148.91 z M 93.03 117.665 l -16.271 -8.358 c 2.906 -5.66 6.124 -11.251 9.554 -16.604 l 15.398 9.866 C 98.598 107.438 95.672 112.52 93.03 117.665 z M 418.468 116.68 c -2.68 -5.133 -5.629 -10.196 -8.778 -15.045 l 15.342 -9.961 c 3.466 5.332 6.712 10.906 9.654 16.55 L 418.468 116.68 z M 111.793 88.366 L 97.395 77.084 c 3.924 -5.005 8.136 -9.884 12.516 -14.5 l 13.266 12.588 C 119.191 79.37 115.361 83.809 111.793 88.366 z M 399.521 87.485 c -3.592 -4.524 -7.444 -8.945 -11.456 -13.12 l 13.187 -12.672 c 4.413 4.593 8.653 9.446 12.603 14.426 L 399.521 87.485 z M 135.752 63.117 l -12.017 -13.788 c 4.8 -4.186 9.853 -8.184 15.014 -11.891 l 10.668 14.866 C 144.717 55.672 140.119 59.308 135.752 63.117 z M 375.424 62.387 c -4.393 -3.781 -9.014 -7.388 -13.727 -10.726 l 10.568 -14.927 c 5.187 3.666 10.268 7.634 15.091 11.791 L 375.424 62.387 z M 164.032 42.836 l -9.203 -15.811 c 5.504 -3.205 11.22 -6.177 16.993 -8.84 l 7.657 16.612 C 174.231 37.225 169.032 39.928 164.032 42.836 z M 347.021 42.278 c -5.02 -2.877 -10.235 -5.548 -15.503 -7.939 l 7.552 -16.655 c 5.798 2.624 11.533 5.563 17.055 8.732 L 347.021 42.278 z M 195.62 28.283 l -6.031 -17.27 c 6.016 -2.099 12.196 -3.932 18.376 -5.443 l 4.347 17.769 C 206.697 24.717 201.08 26.378 195.62 28.283 z M 315.331 27.919 c -5.461 -1.869 -11.08 -3.497 -16.717 -4.836 l 4.239 -17.8 c 6.2 1.48 12.393 3.269 18.401 5.33 L 315.331 27.919 z M 229.396 20.017 l -2.632 -18.102 c 6.277 -0.911 12.692 -1.539 19.057 -1.859 l 0.916 18.271 C 240.942 18.619 235.108 19.187 229.396 20.017 z M 281.5 19.858 c -5.704 -0.794 -11.538 -1.329 -17.339 -1.582 L 264.963 0 c 6.38 0.284 12.795 0.863 19.067 1.743 L 281.5 19.858 z" style="stroke: none; stroke-width: 1; stroke-dasharray: none; stroke-linecap: butt; stroke-linejoin: miter; stroke-miterlimit: 10; fill: #095be8; fill-rule: nonzero; opacity: 1;" transform=" matrix(1 0 0 1 0 0) " stroke-linecap="round" />
</g>
  <g transform="translate(225.9 77.29)">
   <text font-family="Merkin Foo" font-size="40" font-weight="bold" style="stroke: none; stroke-width: 1; stroke-dasharray: none; stroke-linecap: butt; stroke-linejoin: miter; stroke-miterlimit: 10; fill: #0700e0; fill-rule: nonzero; opacity: 1;" ><tspan x="-94.4" y="8.98" style="stroke: none; stroke-width: 0; stroke-dasharray: none; stroke-linecap: butt; stroke-linejoin: miter; stroke-miterlimit: 4; fill: #0700e0; fill-rule: ; opacity: 1;">B</tspan><tspan x="-63.32" y="8.98" style="stroke: none; stroke-width: 0; stroke-dasharray: none; stroke-linecap: butt; stroke-linejoin: miter; stroke-miterlimit: 4; fill: #0700e0; fill-rule: ; opacity: 1;">a</tspan><tspan x="-36.24" y="8.98" style="stroke: none; stroke-width: 0; stroke-dasharray: none; stroke-linecap: butt; stroke-linejoin: miter; stroke-miterlimit: 4; fill: #0700e0; fill-rule: ; opacity: 1;">c</tspan><tspan x="-11.44" y="8.98" style="stroke: none; stroke-width: 0; stroke-dasharray: none; stroke-linecap: butt; stroke-linejoin: miter; stroke-miterlimit: 4; fill: #0700e0; fill-rule: ; opacity: 1;">k</tspan><tspan x="14.6" y="8.98" style="stroke: none; stroke-width: 0; stroke-dasharray: none; stroke-linecap: butt; stroke-linejoin: miter; stroke-miterlimit: 4; fill: #0700e0; fill-rule: ; opacity: 1;">b</tspan><tspan x="41.28" y="8.98" style="stroke: none; stroke-width: 0; stroke-dasharray: none; stroke-linecap: butt; stroke-linejoin: miter; stroke-miterlimit: 4; fill: #0700e0; fill-rule: ; opacity: 1;">e</tspan><tspan x="66.28" y="8.98" style="stroke: none; stroke-width: 0; stroke-dasharray: none; stroke-linecap: butt; stroke-linejoin: miter; stroke-miterlimit: 4; fill: #0700e0; fill-rule: ; opacity: 1;">n</tspan></text>
 </g>
  <g transform="translate(259.32 103.26) scale(0.41 0.41)">
   <text font-family="Bombardier" font-size="40" font-weight="normal" style="stroke: none; stroke-width: 1; stroke-dasharray: none; stroke-linecap: butt; stroke-linejoin: miter; stroke-miterlimit: 10; fill: #000000; fill-rule: nonzero; opacity: 1;" ><tspan x="-297.84" y="8.98" style="stroke: none; stroke-width: 0; stroke-dasharray: none; stroke-linecap: butt; stroke-linejoin: miter; stroke-miterlimit: 4; fill: #000000; fill-rule: ; opacity: 1;">W</tspan><tspan x="-275.64" y="8.98" style="stroke: none; stroke-width: 0; stroke-dasharray: none; stroke-linecap: butt; stroke-linejoin: miter; stroke-miterlimit: 4; fill: #000000; fill-rule: ; opacity: 1;">e</tspan><tspan x="-255.92" y="8.98" style="stroke: none; stroke-width: 0; stroke-dasharray: none; stroke-linecap: butt; stroke-linejoin: miter; stroke-miterlimit: 4; fill: #000000; fill-rule: ; opacity: 1;"> </tspan><tspan x="-245.92" y="8.98" style="stroke: none; stroke-width: 0; stroke-dasharray: none; stroke-linecap: butt; stroke-linejoin: miter; stroke-miterlimit: 4; fill: #000000; fill-rule: ; opacity: 1;">h</tspan><tspan x="-226.4" y="8.98" style="stroke: none; stroke-width: 0; stroke-dasharray: none; stroke-linecap: butt; stroke-linejoin: miter; stroke-miterlimit: 4; fill: #000000; fill-rule: ; opacity: 1;">e</tspan><tspan x="-206.68" y="8.98" style="stroke: none; stroke-width: 0; stroke-dasharray: none; stroke-linecap: butt; stroke-linejoin: miter; stroke-miterlimit: 4; fill: #000000; fill-rule: ; opacity: 1;">l</tspan><tspan x="-198" y="8.98" style="stroke: none; stroke-width: 0; stroke-dasharray: none; stroke-linecap: butt; stroke-linejoin: miter; stroke-miterlimit: 4; fill: #000000; fill-rule: ; opacity: 1;">p</tspan><tspan x="-178.48" y="8.98" style="stroke: none; stroke-width: 0; stroke-dasharray: none; stroke-linecap: butt; stroke-linejoin: miter; stroke-miterlimit: 4; fill: #000000; fill-rule: ; opacity: 1;"> </tspan><tspan x="-168.48" y="8.98" style="stroke: none; stroke-width: 0; stroke-dasharray: none; stroke-linecap: butt; stroke-linejoin: miter; stroke-miterlimit: 4; fill: #000000; fill-rule: ; opacity: 1;">y</tspan><tspan x="-149.8" y="8.98" style="stroke: none; stroke-width: 0; stroke-dasharray: none; stroke-linecap: butt; stroke-linejoin: miter; stroke-miterlimit: 4; fill: #000000; fill-rule: ; opacity: 1;">o</tspan><tspan x="-129.88" y="8.98" style="stroke: none; stroke-width: 0; stroke-dasharray: none; stroke-linecap: butt; stroke-linejoin: miter; stroke-miterlimit: 4; fill: #000000; fill-rule: ; opacity: 1;">u</tspan><tspan x="-110.36" y="8.98" style="stroke: none; stroke-width: 0; stroke-dasharray: none; stroke-linecap: butt; stroke-linejoin: miter; stroke-miterlimit: 4; fill: #000000; fill-rule: ; opacity: 1;">r</tspan><tspan x="-94.96" y="8.98" style="stroke: none; stroke-width: 0; stroke-dasharray: none; stroke-linecap: butt; stroke-linejoin: miter; stroke-miterlimit: 4; fill: #000000; fill-rule: ; opacity: 1;"> </tspan><tspan x="-84.96" y="8.98" style="stroke: none; stroke-width: 0; stroke-dasharray: none; stroke-linecap: butt; stroke-linejoin: miter; stroke-miterlimit: 4; fill: #000000; fill-rule: ; opacity: 1;">b</tspan><tspan x="-65.44" y="8.98" style="stroke: none; stroke-width: 0; stroke-dasharray: none; stroke-linecap: butt; stroke-linejoin: miter; stroke-miterlimit: 4; fill: #000000; fill-rule: ; opacity: 1;">u</tspan><tspan x="-45.92" y="8.98" style="stroke: none; stroke-width: 0; stroke-dasharray: none; stroke-linecap: butt; stroke-linejoin: miter; stroke-miterlimit: 4; fill: #000000; fill-rule: ; opacity: 1;">s</tspan><tspan x="-27.2" y="8.98" style="stroke: none; stroke-width: 0; stroke-dasharray: none; stroke-linecap: butt; stroke-linejoin: miter; stroke-miterlimit: 4; fill: #000000; fill-rule: ; opacity: 1;">i</tspan><tspan x="-18.56" y="8.98" style="stroke: none; stroke-width: 0; stroke-dasharray: none; stroke-linecap: butt; stroke-linejoin: miter; stroke-miterlimit: 4; fill: #000000; fill-rule: ; opacity: 1;">n</tspan><tspan x="0.96" y="8.98" style="stroke: none; stroke-width: 0; stroke-dasharray: none; stroke-linecap: butt; stroke-linejoin: miter; stroke-miterlimit: 4; fill: #000000; fill-rule: ; opacity: 1;">e</tspan><tspan x="20.68" y="8.98" style="stroke: none; stroke-width: 0; stroke-dasharray: none; stroke-linecap: butt; stroke-linejoin: miter; stroke-miterlimit: 4; fill: #000000; fill-rule: ; opacity: 1;">s</tspan><tspan x="39.4" y="8.98" style="stroke: none; stroke-width: 0; stroke-dasharray: none; stroke-linecap: butt; stroke-linejoin: miter; stroke-miterlimit: 4; fill: #000000; fill-rule: ; opacity: 1;">s</tspan><tspan x="58.12" y="8.98" style="stroke: none; stroke-width: 0; stroke-dasharray: none; stroke-linecap: butt; stroke-linejoin: miter; stroke-miterlimit: 4; fill: #000000; fill-rule: ; opacity: 1;"> </tspan><tspan x="68.12" y="8.98" style="stroke: none; stroke-width: 0; stroke-dasharray: none; stroke-linecap: butt; stroke-linejoin: miter; stroke-miterlimit: 4; fill: #000000; fill-rule: ; opacity: 1;">t</tspan><tspan x="80.48" y="8.98" style="stroke: none; stroke-width: 0; stroke-dasharray: none; stroke-linecap: butt; stroke-linejoin: miter; stroke-miterlimit: 4; fill: #000000; fill-rule: ; opacity: 1;">o</tspan><tspan x="100.4" y="8.98" style="stroke: none; stroke-width: 0; stroke-dasharray: none; stroke-linecap: butt; stroke-linejoin: miter; stroke-miterlimit: 4; fill: #000000; fill-rule: ; opacity: 1;"> </tspan><tspan x="110.4" y="8.98" style="stroke: none; stroke-width: 0; stroke-dasharray: none; stroke-linecap: butt; stroke-linejoin: miter; stroke-miterlimit: 4; fill: #000000; fill-rule: ; opacity: 1;">g</tspan><tspan x="130.32" y="8.98" style="stroke: none; stroke-width: 0; stroke-dasharray: none; stroke-linecap: butt; stroke-linejoin: miter; stroke-miterlimit: 4; fill: #000000; fill-rule: ; opacity: 1;">r</tspan><tspan x="145.72" y="8.98" style="stroke: none; stroke-width: 0; stroke-dasharray: none; stroke-linecap: butt; stroke-linejoin: miter; stroke-miterlimit: 4; fill: #000000; fill-rule: ; opacity: 1;">o</tspan><tspan x="165.64" y="8.98" style="stroke: none; stroke-width: 0; stroke-dasharray: none; stroke-linecap: butt; stroke-linejoin: miter; stroke-miterlimit: 4; fill: #000000; fill-rule: ; opacity: 1;">w</tspan><tspan x="189.68" y="8.98" style="stroke: none; stroke-width: 0; stroke-dasharray: none; stroke-linecap: butt; stroke-linejoin: miter; stroke-miterlimit: 4; fill: #000000; fill-rule: ; opacity: 1;"> </tspan><tspan x="199.68" y="8.98" style="stroke: none; stroke-width: 0; stroke-dasharray: none; stroke-linecap: butt; stroke-linejoin: miter; stroke-miterlimit: 4; fill: #000000; fill-rule: ; opacity: 1;">f</tspan><tspan x="212.12" y="8.98" style="stroke: none; stroke-width: 0; stroke-dasharray: none; stroke-linecap: butt; stroke-linejoin: miter; stroke-miterlimit: 4; fill: #000000; fill-rule: ; opacity: 1;">a</tspan><tspan x="231.64" y="8.98" style="stroke: none; stroke-width: 0; stroke-dasharray: none; stroke-linecap: butt; stroke-linejoin: miter; stroke-miterlimit: 4; fill: #000000; fill-rule: ; opacity: 1;">s</tspan><tspan x="250.36" y="8.98" style="stroke: none; stroke-width: 0; stroke-dasharray: none; stroke-linecap: butt; stroke-linejoin: miter; stroke-miterlimit: 4; fill: #000000; fill-rule: ; opacity: 1;">t</tspan><tspan x="262.72" y="8.98" style="stroke: none; stroke-width: 0; stroke-dasharray: none; stroke-linecap: butt; stroke-linejoin: miter; stroke-miterlimit: 4; fill: #000000; fill-rule: ; opacity: 1;">e</tspan><tspan x="282.44" y="8.98" style="stroke: none; stroke-width: 0; stroke-dasharray: none; stroke-linecap: butt; stroke-linejoin: miter; stroke-miterlimit: 4; fill: #000000; fill-rule: ; opacity: 1;">r</tspan></text>
 </g>
  <g transform="translate(376.09 77.29)">
   <text font-family="Chunky" font-size="40" font-weight="normal" style="stroke: none; stroke-width: 1; stroke-dasharray: none; stroke-linecap: butt; stroke-linejoin: miter; stroke-miterlimit: 10; fill: #0700e0; fill-rule: nonzero; opacity: 1;" ><tspan x="-51.59" y="8.98" style="stroke: none; stroke-width: 0; stroke-dasharray: none; stroke-linecap: butt; stroke-linejoin: miter; stroke-miterlimit: 4; fill: #0700e0; fill-rule: ; opacity: 1;">c</tspan><tspan x="-29.64" y="8.98" style="stroke: none; stroke-width: 0; stroke-dasharray: none; stroke-linecap: butt; stroke-linejoin: miter; stroke-miterlimit: 4; fill: #0700e0; fill-rule: ; opacity: 1;">h</tspan><tspan x="-0.21" y="8.98" style="stroke: none; stroke-width: 0; stroke-dasharray: none; stroke-linecap: butt; stroke-linejoin: miter; stroke-miterlimit: 4; fill: #0700e0; fill-rule: ; opacity: 1;">e</tspan><tspan x="25.28" y="8.98" style="stroke: none; stroke-width: 0; stroke-dasharray: none; stroke-linecap: butt; stroke-linejoin: miter; stroke-miterlimit: 4; fill: #0700e0; fill-rule: ; opacity: 1;">r</tspan></text>
 </g>
</svg>